<?xml version="1.0" encoding="UTF-8"?><svg enable-background="new 0 0 3000 500" version="1.1" viewBox="0 0 3e3 500" xml:space="preserve" xmlns="http://www.w3.org/2000/svg"><style type="text/css">.st0{fill:#001e51;}</style><path class="st0" d="m213.23 319.99c-2.79 0.33-5.61 0.49-8.47 0.49-10.19 0-19.58-1.88-28.21-5.64-8.63-3.75-16.05-8.73-22.24-14.94-6.2-6.19-11.18-13.61-14.94-22.24-3.77-8.63-5.64-18.03-5.64-28.21 0-9.73 1.88-19.02 5.64-27.88 3.75-8.85 8.73-16.37 14.94-22.57 6.19-6.19 13.61-11.17 22.24-14.94 8.63-3.75 18.03-5.64 28.21-5.64 9.73 0 19.02 1.89 27.88 5.64 8.85 3.77 16.37 8.74 22.57 14.94 6.19 6.2 11.17 13.72 14.94 22.57 3.75 8.86 5.64 18.15 5.64 27.88 0 7.38-1 14.35-2.97 20.91l74.58 72.15c5.33-8.24 10.01-17.02 14.03-26.34 8.85-20.58 13.28-42.82 13.28-66.71s-4.43-46.14-13.28-66.71c-8.86-20.58-20.91-38.5-36.18-53.77s-33.19-27.32-53.77-36.18c-20.58-8.85-42.82-13.28-66.71-13.28s-46.14 4.43-66.71 13.28c-20.58 8.86-38.5 20.91-53.77 36.18s-27.33 33.19-36.18 53.77c-8.86 20.58-13.28 42.82-13.28 66.71s4.42 46.14 13.28 66.71c8.85 20.58 20.91 38.5 36.18 53.77s33.19 27.33 53.77 36.18c20.58 8.86 42.82 13.28 66.71 13.28s46.14-4.42 66.71-13.28c7.05-3.03 13.78-6.45 20.21-10.23l-78.46-75.9z"/><path class="st0" d="m335.21 330.72c-2.97 4.8-6.17 9.4-9.61 13.79l-72.47-70.11c2.42-4.67 4.18-9.73 5.16-15.07 0-0.01 0.01-0.03 0.01-0.05 0.18-0.97 0.33-1.95 0.46-2.94 0.02-0.13 0.03-0.27 0.05-0.4 0.18-1.5 0.3-3.02 0.35-4.56 0.01-0.26 0.01-0.53 0.02-0.79 0.01-0.38 0.03-0.76 0.03-1.15 0-30.02-24.42-54.44-54.44-54.44s-54.44 24.42-54.44 54.44 24.42 54.44 54.44 54.44c0.43 0 0.86-0.02 1.29-0.03 0.23-0.01 0.46-0.01 0.69-0.02 0.51-0.02 1.02-0.04 1.53-0.07l0.33-0.03c1.01-0.07 2.02-0.17 3.02-0.3 0.11-0.01 0.23-0.03 0.34-0.04 2.27-0.3 4.49-0.73 6.66-1.3l75.13 72.68c-4.63 3.26-9.46 6.29-14.5 9.07l12.43 12.02c12.33-7.26 23.53-15.9 33.57-25.94 8.35-8.35 15.73-17.49 22.15-27.42l-12.2-11.78zm-120.83-44.67c-3.13 0.82-6.37 1.24-9.62 1.24-20.86 0-37.84-16.97-37.84-37.84s16.97-37.84 37.84-37.84c20.86 0 37.84 16.97 37.84 37.84 0 1.51-0.09 3-0.26 4.48 0 0.03-0.01 0.06-0.01 0.09-0.08 0.69-0.19 1.38-0.31 2.07-0.01 0.06-0.02 0.11-0.03 0.17-0.66 3.64-1.87 7.15-3.6 10.51l-0.58 1.13c-4.87 8.69-13.06 15.27-22.85 18.01l-0.58 0.14zm99.13 72.15c-2.14 2.14-4.34 4.21-6.61 6.22l-72-69.65c3-2 5.8-4.29 8.34-6.84l71.43 69.1c-0.38 0.39-0.77 0.78-1.16 1.17z"/><path class="st0" d="m204.76 228.2c-11.72 0-21.25 9.53-21.25 21.25s9.53 21.25 21.25 21.25 21.25-9.53 21.25-21.25c0.01-11.72-9.53-21.25-21.25-21.25zm0 25.91c-2.57 0-4.66-2.09-4.66-4.66s2.09-4.66 4.66-4.66 4.66 2.09 4.66 4.66-2.09 4.66-4.66 4.66z"/><path class="st0" d="m706.79 79.52v181.04c0 21.99-4.15 42.63-12.45 61.92-8.31 19.3-19.63 36.12-33.99 50.48s-31.19 25.69-50.48 33.99c-19.3 8.3-39.94 12.45-61.92 12.45-21.99 0-42.63-4.15-61.92-12.45-19.3-8.3-36.12-19.62-50.48-33.99-14.36-14.35-25.69-31.18-33.99-50.48-8.31-19.29-12.45-39.93-12.45-61.92v-181.04h107.68v181.04c0 13.91 5.15 25.69 15.48 35.33 10.32 9.65 22.21 14.47 35.67 14.47s25.34-4.82 35.67-14.47c10.32-9.64 15.48-21.42 15.48-35.33v-181.04h107.7z"/><path class="st0" d="m1047.8 182.74c-8.86-20.58-20.91-38.5-36.18-53.77s-33.19-27.32-53.77-36.18c-20.58-8.85-42.82-13.28-66.71-13.28-23.9 0-46.14 4.43-66.71 13.28-20.58 8.86-38.5 20.91-53.77 36.18s-27.33 33.19-36.18 53.77c-8.86 20.58-13.28 42.82-13.28 66.71s4.42 46.14 13.28 66.71c8.85 20.58 20.91 38.5 36.18 53.77s33.19 27.33 53.77 36.18c20.58 8.86 42.82 13.28 66.71 13.28 23.9 0 46.14-4.42 66.71-13.28 20.58-8.85 38.5-20.91 53.77-36.18s27.32-33.19 36.18-53.77c8.85-20.58 13.28-42.82 13.28-66.71s-4.43-46.13-13.28-66.71zm-266.85 66.71h-43.15c0-21.53 4.01-41.77 11.92-60.15 7.97-18.54 18.96-34.89 32.67-48.6 13.69-13.69 30.04-24.68 48.6-32.67 18.4-7.91 38.64-11.92 60.15-11.92v43.15c-15.62 0-30.12 2.83-43.09 8.41-13.51 5.82-25.34 13.74-35.14 23.55-9.82 9.82-17.74 21.64-23.55 35.14-5.59 12.96-8.41 27.46-8.41 43.09zm160.64 0c0-7.46-1.19-14.01-3.54-19.47-2.81-6.53-6.48-12.09-10.92-16.52-4.43-4.43-9.98-8.1-16.47-10.89-5.5-2.36-12.06-3.56-19.52-3.56s-14.01 1.19-19.47 3.54c-6.53 2.81-12.09 6.48-16.52 10.92-4.44 4.44-8.11 9.99-10.91 16.52-2.35 5.46-3.54 12.01-3.54 19.47h-43.15c0-13.36 2.37-25.65 7.06-36.53 4.97-11.56 11.71-21.64 20.04-29.97 8.32-8.32 18.4-15.06 29.97-20.04 10.89-4.68 23.18-7.06 36.53-7.06s25.65 2.38 36.56 7.07c11.55 4.97 21.63 11.71 29.94 20.03 8.32 8.32 15.06 18.4 20.04 29.97 4.68 10.89 7.06 23.18 7.06 36.53h-43.16z"/><path class="st0" d="m1075.2 209.87c2.64-3.98 5.63-7.61 9-10.87 6.41-6.19 13.94-11.17 22.57-14.94 8.63-3.75 17.81-5.64 27.55-5.64 13.71 0 25.99 3.43 36.84 10.29 10.84 6.87 19.14 15.38 24.89 25.56l88.29-47.13c-15.05-26.11-35.74-47.23-62.07-63.39-26.33-16.15-55.66-24.23-87.96-24.23-23.9 0-46.14 4.43-66.71 13.28-15.39 6.63-29.36 15.04-41.91 25.25 16.31 16.51 29.4 36.06 38.9 58.13 4.65 10.78 8.18 22.04 10.61 33.69z"/><path class="st0" d="m1171.2 310.52c-10.85 6.64-23.13 9.96-36.84 9.96-9.74 0-18.92-1.88-27.55-5.64-8.63-3.75-16.16-8.73-22.57-14.94-3.38-3.26-6.38-6.86-9.02-10.8-2.44 11.63-5.96 22.86-10.59 33.61-9.51 22.08-22.59 41.63-38.9 58.14 12.55 10.21 26.52 18.63 41.91 25.25 20.58 8.86 42.82 13.28 66.71 13.28 32.3 0 61.62-8.07 87.96-24.23 26.32-16.15 47.02-37.28 62.07-63.39l-88.29-47.13c-5.76 10.63-14.05 19.26-24.89 25.89z"/><path class="st0" d="m1552.1 222.72 126.26 201.33h-113.97l-79.85-125.58-19.11 20.47v105.1h-98.96v-339.87h98.96v100.33l85.31-100.32h127.62l-126.26 138.54z"/><polygon class="st0" points="2113.4 84.17 2006.8 316 2006.8 303.25 2006.8 204.29 2006.8 84.17 1907.9 84.17 1907.9 204.29 1793.9 204.29 1793.9 84.17 1694.9 84.17 1694.9 203.61 1694.9 303.25 1694.9 424.05 1793.9 424.05 1793.9 303.25 1907.9 303.25 1907.9 424.05 1957.2 424.05 2006.8 424.05 2163.1 84.17"/><path class="st0" d="m2308.8 424.05-12.97-27.98h-159.02l-12.97 27.98h-98.96l156.29-339.87h84.63l141.95 339.87h-98.95zm-131.04-113.29h78.48l-37.54-85.31-40.94 85.31z"/><path class="st0" d="M2736.27,84.17v339.87h-90.81L2515.2,239.78v184.27h-90.81V84.17h90.81l130.27,191.78V84.17H2736.27z"/><polygon class="st0" points="2866.2 84.17 2866.2 204.29 2752.9 204.29 2752.9 303.25 2866.2 303.25 2866.2 424.05 2965.2 424.05 2965.2 303.25 2965.2 204.29 2965.2 84.17"/></svg>